<?xml version="1.0"?><svg fill="#000000" xmlns="http://www.w3.org/2000/svg" viewBox="0 0 24 24" width="24px" height="24px">    <path d="M 12 3 A 1 1 0 0 0 11 4 A 1 1 0 0 0 11.417969 4.8144531 L 8.3457031 9.1152344 L 2.9472656 7.3164062 A 1 1 0 0 0 3 7 A 1 1 0 0 0 2 6 A 1 1 0 0 0 1 7 A 1 1 0 0 0 2 8 A 1 1 0 0 0 2.2167969 7.9746094 L 4 16 L 4 20 L 20 20 L 20 16 L 21.783203 7.9765625 A 1 1 0 0 0 22 8 A 1 1 0 0 0 23 7 A 1 1 0 0 0 22 6 A 1 1 0 0 0 21 7 A 1 1 0 0 0 21.052734 7.3164062 L 15.654297 9.1152344 L 12.580078 4.8125 A 1 1 0 0 0 13 4 A 1 1 0 0 0 12 3 z M 12 7.4414062 L 14.025391 10.277344 L 14.884766 11.480469 L 16.285156 11.013672 L 19.28125 10.015625 L 18.396484 14 L 5.6035156 14 L 4.71875 10.013672 L 7.7128906 11.011719 L 9.1132812 11.478516 L 9.9726562 10.277344 L 12 7.4414062 z M 6 16 L 18 16 L 18 18 L 6 18 L 6 16 z"/></svg>